<svg width="145" height="145" viewBox="0 0 145 145" fill="none" xmlns="http://www.w3.org/2000/svg">
<path fill-rule="evenodd" clip-rule="evenodd" d="M73.6835 86.9822C75.3789 85.7308 74.2084 92.8759 73.3202 95.177C72.2303 98.1239 71.3422 100.264 69.8081 103.251C67.9511 106.803 69.7678 110.275 69.9292 113.222C70.0503 114.998 68.6375 121.982 69.1218 125.171C69.6062 126.019 70.2118 125.05 70.454 122.87L70.9385 119.641C71.5036 119.277 71.7056 119.641 71.544 120.731L71.3826 122.87C71.7459 124.001 72.3514 124.121 73.4414 123.476C73.8855 122.103 75.4195 119.842 74.5312 118.591L73.1991 116.734C72.634 113.343 72.6743 110.154 73.6028 107.247C74.9349 104.947 76.59 101.596 77.9223 99.5369C78.8104 93.8046 78.2048 90.9384 77.6397 88.0722C76.9937 85.0041 82.726 83.47 82.161 84.116C79.6985 86.6592 78.9718 89.808 79.2948 93.9256C79.4967 96.1859 78.7701 98.6488 79.0525 100.909C76.1056 103.655 71.1403 110.396 76.7919 112.819C77.68 113.182 77.882 113.262 77.8011 111.849C77.0746 108.701 77.6397 106.884 79.7388 103.049C81.1113 100.667 80.1829 97.4783 82.5647 95.8226C85.3098 93.2797 87.7723 88.4354 88.4584 87.1032C88.7814 85.7308 90.6788 85.5288 90.1541 86.9015C87.6511 93.1183 83.251 97.3168 82.282 99.295C81.717 100.385 81.1519 101.474 81.1113 102.766C81.071 104.422 78.6084 105.189 78.6894 106.844C78.7701 109.024 80.0215 111.163 78.1644 111.365C78.6488 112.011 79.6178 112.294 81.2326 111.284C82.0803 110.598 81.838 109.306 82.161 108.135C82.8069 105.714 82.5243 103.977 83.3721 101.434C83.9775 99.6174 84.9464 97.8008 86.7226 96.7919C87.53 96.3475 88.2163 97.2759 87.4493 98.2452C85.9959 99.9405 84.5024 101.434 83.8161 103.614C83.3317 105.229 83.4931 106.844 83.3317 108.459C83.2106 109.709 81.4746 112.132 80.6269 112.778C81.515 112.294 83.7354 112.374 84.9061 108.539L85.5116 104.542C85.6731 103.372 91.3246 98.8505 92.2533 94.41C93.0606 90.6155 93.1413 88.3143 92.778 86.0941C94.1908 84.3987 95.4424 81.7745 96.3709 80.7654C96.8956 78.3837 96.4516 75.3558 97.0975 74.0237C98.7527 70.6328 99.4388 68.251 98.8737 66.3536C96.6938 66.2326 99.8022 65.2234 98.591 62.115C96.936 60.8635 97.1782 60.2581 99.2371 60.2985C100.044 60.2985 100.609 59.8139 100.569 59.0065L98.5104 57.9167L98.0663 56.5036L98.9947 55.3329L100.408 52.7494L97.6223 52.5073L98.0663 50.6099C98.5104 48.9547 100.125 47.8244 99.3178 48.1474C94.2717 50.1255 95.2808 48.4703 98.7123 45.0793L98.7527 43.7067L94.8771 45.5233C96.936 40.6388 91.5669 35.9963 85.7942 32.9284C84.1794 33.8568 84.7042 36.6827 86.9649 37.6514L90.5173 40.7195C91.5265 41.648 91.2843 43.7471 90.3962 43.7874C89.71 42.1727 88.7814 41.1636 87.8126 39.8315C86.3996 38.8221 86.2786 39.4278 85.7135 38.9836C85.0272 36.4404 83.8161 32.9687 81.3939 31.9191C76.59 29.8199 73.2798 30.3043 69.5255 31.2733L66.0136 32.2017C64.8832 32.4843 63.5105 30.708 61.7344 30.1025L61.9363 33.1301C61.048 33.4128 59.9582 34.0585 59.9986 34.8659L55.8406 34.8256L58.2224 36.9247C55.0735 34.9065 51.3596 42.415 49.3815 46.9363C47.242 46.896 45.8694 46.694 43.6088 47.1786C42.6804 47.9454 42.5188 48.7125 41.7921 49.2374C40.5004 50.2466 39.8546 49.0758 38.5222 48.6721C37.5535 48.3895 37.7958 48.5914 38.6838 49.6814C39.0472 50.5292 42.4784 51.4173 44.1336 49.9235C45.0216 49.1162 46.798 50.3272 49.5429 49.6006C50.754 49.2374 51.4 47.7437 52.5707 46.7344C52.9341 46.7344 53.4185 46.9767 52.9744 48.1474C52.0458 50.5292 50.0275 51.2153 48.2512 52.1036L42.7611 52.5073C40.2179 52.709 39.2489 52.5073 38.1185 53.1531C36.1406 54.3238 36.4231 54.7678 37.4324 54.2027C39.6123 53.032 41.227 52.4667 43.2455 53.8394C44.6583 55.3329 46.8787 55.9789 49.5429 56.6653C51.1174 56.9477 54.8313 55.5349 55.5579 52.7897C55.9213 51.498 54.8313 50.9329 55.679 49.9639C56.4057 49.1969 57.213 49.5602 57.5764 50.4888C57.092 53.1531 56.2443 55.0908 54.8313 55.9385C52.6514 57.5936 51.5614 57.9973 50.1082 58.5625C47.9281 59.3698 44.8199 58.5625 42.8822 57.9167C42.7207 57.8763 42.5995 57.755 42.4784 57.634C41.7921 57.1093 45.5466 56.3019 45.4253 55.5752C44.1336 54.7678 42.0344 55.7366 40.0159 56.1403L38.5628 56.7459C40.904 57.634 41.5097 57.8763 40.9847 59.4102C38.4012 61.7919 38.5222 61.2672 41.9134 59.8544C42.8822 60.3388 43.1244 61.2269 43.2051 62.1957C43.3665 63.0434 44.8199 63.5683 46.3134 63.7297L47.8878 62.4379L49.9466 61.8727C51.1174 62.5994 45.708 66.5152 44.4969 65.3041C43.4472 64.2141 42.3574 63.326 41.2674 62.7206C39.8142 62.3572 38.6838 62.559 37.6745 62.882L35.2929 63.528C38.2801 63.205 41.0253 63.4471 42.8822 65.7885C42.5188 67.8877 42.5591 68.2107 44.618 69.2198C46.3943 70.0272 49.0182 68.9373 49.7045 67.161L50.4312 65.3445C50.8753 64.2544 54.0239 65.0215 56.0423 64.8197C58.4645 64.4161 60.1599 63.3664 60.8059 62.3976C61.5729 61.3075 65.1659 58.0377 59.0701 60.8232C57.6974 61.9939 57.7378 62.236 56.123 61.3883C54.1451 61.3075 52.49 61.0249 51.6018 60.2581C49.8256 60.1772 49.7045 59.7332 51.4807 58.724C53.2568 57.755 54.912 56.9882 55.1139 58.2396L55.3966 59.4507C55.5983 60.2581 56.123 60.2985 57.0113 59.5718C57.3744 60.1772 58.1012 60.3792 59.1912 60.2581C59.3929 59.3698 60.9673 58.4414 62.2188 59.0874C63.0665 59.5315 62.9051 60.7021 63.9547 61.1865L66.74 61.5095C67.0631 61.9535 67.0227 62.7609 67.0631 63.8911C68.3951 64.4161 69.0815 63.7297 70.5752 62.7609C71.7459 62.6397 72.109 63.8104 72.3917 65.6675C73.2394 65.3445 74.3295 64.8601 74.6525 63.7701C76.2672 63.8104 77.2763 64.6581 77.0746 66.2729C75.2579 68.8161 74.9754 68.2914 78.5277 66.8382C79.9408 66.2729 81.1922 66.6362 82.7667 66.7573C82.8069 67.2014 83.0894 68.1703 83.5334 69.5832C83.7757 68.7354 84.0987 67.9684 85.6328 67.5243C86.9649 67.4033 88.3374 66.6766 88.7007 67.605C89.5081 69.6641 88.176 72.3283 86.1979 74.2257C83.4931 78.4643 81.7976 78.989 79.6581 81.0882C77.7204 82.9453 74.6928 84.439 75.5809 81.9362C76.146 80.3617 76.59 78.5047 77.3167 76.8496C78.8911 73.0549 83.1297 71.7632 87.6107 72.1669L88.3777 70.9155C84.2601 71.2382 79.0121 71.1172 77.0746 74.9927C75.702 77.8589 74.4505 80.6846 73.6431 83.9544C73.1587 85.9728 72.0284 85.4078 70.8173 84.6407C69.6871 83.026 69.0411 81.1288 68.7988 79.6754C68.032 79.2717 67.6687 79.5947 68.032 80.6846L68.8394 83.1876C66.3364 82.3398 62.784 80.5231 60.6443 81.9765C59.2719 82.9049 57.859 83.349 56.4864 83.349C56.1636 81.6939 57.4957 80.6442 57.3744 79.2314C56.9304 74.9522 56.2443 70.9558 54.4276 68.6547C53.6202 67.6456 55.5579 66.3942 57.1324 65.9499C54.9525 65.1425 53.2568 65.1022 51.723 66.6362C49.5026 71.0768 49.7448 76.0019 52.9341 83.6719C54.0642 86.3765 54.1855 90.0098 56.5267 92.7146C58.626 95.177 63.228 96.7114 66.4979 95.3386C70.8173 93.5219 71.8266 88.3546 73.6835 86.9822ZM62.9454 93.1586C61.2903 92.5126 60.2812 91.5035 59.7159 90.2521C58.2627 87.7492 58.6664 85.3675 60.9673 84.2774C63.0665 83.3086 65.2465 84.3987 66.8209 85.8922C68.032 86.6189 69.4448 86.3362 71.221 86.8206C72.109 87.0629 71.3422 88.2739 70.454 89.041C69.5255 90.5751 67.709 94.0063 66.0539 93.966L66.4173 92.9164C67.0631 92.3915 66.9016 91.8669 67.1437 89.7677C67.2246 88.9603 68.2338 89.2427 68.7182 89.4851C69.0411 89.6465 69.1218 88.9603 69.4852 88.7584C67.709 87.5473 64.8428 87.7895 62.9454 86.8612C62.4207 87.1032 62.2188 86.9418 64.2372 88.1529C63.0261 88.9199 63.8335 90.9788 63.9142 92.0686C63.9142 92.0686 64.6006 93.7641 62.9454 93.1586ZM96.2092 66.1115C95.9268 65.1022 95.2002 65.3848 95.2405 64.8601C94.9578 64.4161 95.1598 64.2141 95.8865 64.2141C96.5322 64.5775 96.7342 65.2638 97.1379 65.7885C97.4203 68.6547 97.2186 72.4494 95.4019 74.9927C93.8276 77.2129 94.5945 78.545 94.3927 81.5325C93.4643 80.8058 93.4643 82.2589 93.3835 83.2683C93.101 83.7123 92.8183 83.7123 92.5357 83.349L92.6166 76.7286C92.2129 74.8311 92.9797 74.4274 93.9891 73.9027C95.1598 73.2567 94.0294 70.7942 94.3927 68.8567C94.635 67.605 96.4516 67.1206 96.2092 66.1115ZM81.2326 92.2302C81.9996 87.6685 83.4931 84.439 86.8843 81.6535C88.0953 81.5325 88.5393 81.8149 89.3467 81.8956C85.9556 82.9049 83.251 84.9233 83.0894 89.1621C83.0087 90.5347 82.8069 90.8979 83.7354 90.131C84.5831 87.0225 86.319 84.0756 89.1448 82.4205L89.3064 83.2683C85.9153 87.1436 83.0894 91.2612 81.4343 95.5001C80.3444 96.2268 80.9499 95.0155 81.2326 92.2302ZM70.8576 108.377C73.4011 103.17 72.0688 100.506 76.2268 98.1239C77.1553 96.1457 76.6709 95.7824 75.5002 95.7421C73.8047 97.6392 72.8761 100.829 71.8266 102.686C72.3917 100.304 74.2084 96.3072 75.8635 94.0467C72.5937 94.4907 68.3145 113.585 70.8576 108.377ZM56.8093 59.2085L60.3619 56.9073C60.3619 55.1715 59.8371 53.4357 60.3619 51.6999L57.7378 48.7932C56.0423 49.5603 56.2847 47.0977 56.4057 45.4427L56.1636 41.769C56.0827 40.6389 57.1324 39.9122 58.4645 39.3872L59.7159 37.4901V36.2386L60.7656 35.2293L61.6133 36.8844L63.2684 34.7853C64.1968 34.0991 64.6409 33.2918 64.9639 32.4844L66.4979 32.3631C66.296 32.7668 66.4979 33.1302 66.2153 33.5338C65.3272 34.0586 64.3988 34.3816 63.7125 35.1486C63.1474 35.7946 62.7436 36.6827 62.6628 37.4901C62.4207 39.3469 63.7125 37.6111 64.3179 36.0367L66.4173 36.6827L63.4702 39.7103C62.4207 41.4057 62.7033 43.2224 63.9142 44.9179C65.6502 45.5233 67.4668 46.2904 69.2026 48.0667L71.8266 48.1071L70.9789 52.1036L74.7332 56.0596L77.4783 55.8579L75.5809 57.957V59.4102L80.5059 60.8636L81.6766 59.8139C82.605 59.0065 83.1703 58.7241 83.3721 60.4195C83.574 62.1553 84.5831 62.4379 86.9246 61.2672L88.5393 59.3698L91.1229 58.8855C92.7377 57.957 93.3028 56.3423 93.222 55.4139L96.0075 54.1221L96.0479 51.6594L95.2405 48.7932L97.057 52.1843L97.3396 55.5349L96.5322 57.0689L97.7433 57.4323L99.1967 58.6837C98.1874 57.9974 96.9763 57.7955 96.2496 59.1278L96.4516 62.5591C93.7468 64.5775 93.7872 65.1426 92.778 65.7482L91.1229 64.4564L90.5578 66.1922C89.1448 67.04 87.5704 66.9593 85.8346 66.3942L84.8254 67.4033C84.2198 67.8877 83.6547 69.0181 83.0491 66.7574L82.484 65.1426C81.8783 64.6178 81.1519 64.2142 79.6581 64.7795L79.2948 66.0309C78.1241 66.4749 77.115 66.9593 76.1864 67.7264C76.7919 66.9996 77.68 66.9996 77.2763 65.3445C76.9937 64.0931 76.8727 63.5684 75.2175 63.5684C74.0468 63.5684 73.3202 64.3352 72.634 65.1426C72.5937 63.9721 73.5221 62.4783 72.5533 61.5902C72.1496 61.2672 71.0999 60.9039 70.7366 61.5096L69.9696 62.8417C69.4045 63.8105 68.0723 63.3261 67.3053 63.6491C67.3053 63.0434 67.2246 62.3573 67.507 61.7516C68.2338 60.5406 67.6687 59.8545 65.8116 59.7332L63.9547 59.5718L63.0665 58.9662L64.4795 57.7148L62.6224 57.5533C60.2003 57.7955 59.1912 58.6434 58.7875 59.4507L56.8093 59.2085ZM94.191 60.5002C94.837 60.0562 95.281 60.0158 95.483 60.3388L95.2407 61.8324C94.2719 62.438 93.9085 63.0838 93.5049 63.8508L92.6975 64.2545L91.9708 64.0124C91.7691 63.4874 92.0918 62.761 92.7781 62.3976L94.191 60.5002ZM89.9524 60.2176L91.9708 58.8855C92.7379 58.6837 93.4645 58.7644 93.9085 57.7955L93.3432 56.9883C93.3432 56.1403 93.6663 55.6559 94.2315 56.1C94.6756 56.2212 94.9984 56.7056 95.281 57.2707C95.16 57.8763 94.958 58.5625 94.5544 59.0065L91.4864 61.9536C91.0021 62.438 90.6387 63.0031 90.8404 63.7298C90.3964 64.4968 89.6293 64.7389 89.1853 64.7389L88.4586 64.4564C87.1265 62.115 88.1359 61.7113 89.9524 60.2176ZM62.1382 49.2778C62.986 48.0264 63.874 47.017 64.9237 47.1381C66.6595 47.3804 67.7496 47.784 68.5569 48.9952L69.445 48.8741C70.5351 48.7528 69.445 50.0043 68.799 49.8025C68.7586 50.6099 68.799 51.377 69.001 52.1036C68.1936 52.8301 67.588 52.386 67.1036 52.144C66.6192 51.9016 66.2558 51.6594 65.8522 51.5383C62.8245 50.6502 62.4209 50.8522 62.1382 49.2778ZM85.4714 64.5775C85.3504 64.1738 85.7541 63.6894 84.6236 63.8105L84.9063 63.0031C86.2384 62.5591 86.6825 63.205 86.6421 64.1738C86.6018 65.1831 86.077 65.1831 85.4714 64.5775ZM76.5499 60.6212C75.9444 60.0562 74.9351 60.7425 75.5004 61.348C76.9939 62.5187 78.4069 63.4471 80.829 63.0031L81.3134 63.6087H82.4035L82.2822 63.0031L83.1299 62.761L82.9686 62.115L82.1612 62.1553L82.0401 61.348H81.1923L81.0712 62.1553C79.9813 63.1647 77.1555 61.1865 76.5499 60.6212ZM65.8118 55.7772L65.4484 54.7276C63.874 53.6779 63.2282 54.1221 63.9144 55.6156C65.7714 57.1497 67.7091 58.5625 69.5661 60.0966C71.0597 60.0158 70.6964 60.1369 70.4138 58.9662C69.243 57.9167 67.6285 56.9477 65.8118 55.7772ZM62.4209 51.6594L65.1254 53.1531L67.0632 53.5972L69.243 53.9605C71.3021 54.5256 72.4323 54.5661 73.8453 56.423C75.258 58.2801 71.8268 56.6249 71.2212 56.3423L69.0817 55.1715C67.8706 54.4852 66.9421 54.6065 65.9328 54.2027L62.7438 53.5568L61.7748 52.5477C61.6135 51.5383 61.8961 51.4576 62.4209 51.6594ZM72.5535 60.2582C73.1589 60.6212 73.6433 60.0158 73.4415 58.8855C72.6745 58.0781 71.5846 57.3514 70.3331 56.6653C69.2027 56.544 69.4854 57.1496 71.2615 58.4818L72.5535 60.2582ZM59.6757 42.6168L58.7473 41.2444L59.2317 40.0736L60.1601 39.0645L60.2814 38.2571L61.6539 38.7011L61.8961 39.5085V41.1233C61.2905 41.7287 60.8465 42.415 60.8465 42.415V42.9802L60.6042 43.7875L61.6539 43.4645L61.7748 44.5949L61.5328 46.9363H60.8465L60.4831 46.3307L59.9181 46.0886C59.9181 45.2812 60.0391 45.0793 60.0391 45.0793L60.3621 44.3528L60.1601 43.4645C60.1601 43.4645 59.6757 42.8591 59.6757 42.6168ZM58.8684 46.8153L59.5547 47.5014L60.3621 48.3088C59.7968 48.7528 59.5547 48.7528 59.5547 48.7528L58.8684 48.5511L58.182 47.7437L58.8684 46.8153ZM60.4427 65.1022C62.1382 64.6986 64.8027 64.2545 66.6192 65.2638C69.3643 66.8786 71.2212 69.0181 75.016 70.3502C74.5314 70.6329 73.7646 70.875 72.7956 70.7136C70.8175 70.3502 68.9203 68.0897 66.2558 66.9189C64.399 66.0712 62.8649 65.5463 60.4427 65.1022ZM79.6583 74.4275C80.0217 74.5891 80.385 74.9928 81.0712 75.1541C81.5961 75.2752 82.2015 75.2348 82.7668 75.1138L84.5833 74.5891C83.5742 75.8001 82.0805 76.4056 81.1923 76.2845C80.1427 76.1633 79.2547 75.8405 79.0932 75.3965C78.851 74.7504 79.0123 74.2257 79.6583 74.4275ZM62.7035 67.2419C63.9549 68.1704 65.166 69.1391 66.7806 69.9465C67.9916 70.3099 69.2836 70.3099 70.3734 70.1485C71.1808 70.0272 71.4231 70.7136 70.1717 71.0365C68.355 71.5613 66.8211 71.3595 65.3274 70.3905C63.8337 69.4621 62.7842 68.251 62.7035 67.2419ZM58.0206 39.9525V42.6571L58.6262 43.7068L59.0299 45.5639L58.7069 46.0886C58.7069 46.0886 59.0299 46.25 58.5454 46.5326C58.0206 46.775 58.6262 46.775 57.9399 46.775C57.2536 46.775 57.3343 47.7034 57.3343 46.5326C57.3343 45.3216 57.3343 45.8463 57.3343 45.2409C57.3343 44.6352 57.8592 45.5639 57.3343 44.5545C56.8095 43.5454 56.8095 43.7875 57.0922 42.7784C57.3343 41.7287 57.0115 41.4057 57.0115 41.4057L58.0206 39.9525ZM87.8532 44.4335L87.2475 43.7068L87.5706 42.6571L88.4586 42.3343L87.2475 42.0517L86.5211 41.769L85.9154 40.8407L85.0274 39.5085C84.5026 38.7415 84.4219 40.7195 84.4219 40.7195L85.1888 41.4463C85.633 42.2131 84.5833 42.7784 85.4714 42.9398C86.3594 43.1014 86.3594 43.3838 86.3594 43.3838L86.1981 44.2719L86.077 45.3216C86.3594 46.8153 86.1981 47.2594 86.1981 47.2594L85.9154 48.1474L86.8035 48.4704L87.4091 47.7034L87.6918 46.8153L88.5799 48.0264C88.7412 48.9144 89.1853 49.1969 89.1853 49.1969C89.1853 49.1969 89.5083 49.1969 89.5083 50.0851C89.5083 50.9733 89.5083 50.9733 89.5083 50.9733L90.3964 51.5787C90.8404 49.1969 90.8404 49.1969 90.8404 49.1969L89.9524 48.3088L89.3469 47.2594C88.4586 46.8153 88.0146 45.927 88.0146 45.927V45.2005L87.8532 44.4335ZM85.8348 53.7991C86.6018 53.7991 86.7631 54.0815 86.7631 54.0815L87.2072 55.4946L88.2972 56.2616C88.9029 57.19 88.9029 57.19 88.9029 57.19H87.5302V56.1L86.6018 56.544L85.9558 55.6156L85.8348 53.7991ZM77.8013 52.0631L79.3353 52.386L80.4253 52.2247L79.9409 50.6906L79.8197 49.6006L78.7299 49.3181C77.9629 49.6006 78.5683 49.3181 77.6399 49.6006C76.7114 49.9236 75.9444 49.3181 75.9444 49.3181L75.7828 48.5511L75.016 48.6721L74.0874 49.1566C74.0874 50.2466 71.7865 51.2963 73.3203 51.175C74.8544 51.0136 75.5004 51.175 75.5004 51.175L76.1058 50.3676L76.8728 50.5292L78.5683 51.0136L77.8013 52.0631ZM76.8728 52.9917L77.9629 53.1531L78.7299 53.6375L80.4253 54.0815L80.708 55.7772H79.6583L78.7299 55.6156L77.9629 55.4946L77.1958 55.1715L78.5683 54.6872L79.8197 54.4045L77.9629 53.7991L76.8728 52.9917ZM77.8013 35.8753L78.7299 36.8037L78.4069 38.4992L79.1739 39.1048L79.8197 40.1947L80.8694 40.0332L80.708 39.2662L79.9409 38.9836L79.6583 37.4094V36.4807C79.6583 36.4807 79.6583 35.5523 78.8913 35.5523C78.1242 35.5523 77.8013 35.8753 77.8013 35.8753ZM75.7828 33.0898L76.8728 33.5742C77.9629 34.0182 76.8728 33.0898 77.9629 34.0182C79.0123 34.9469 79.3353 34.9469 79.3353 34.9469L80.708 34.3412L79.6583 33.5742C78.7299 33.4128 77.6399 32.8072 77.6399 32.8072C77.6399 32.8072 75.6214 32.9284 75.7828 33.0898ZM74.8544 36.0367L73.9259 36.3597L72.8762 36.6424C71.7865 37.2881 71.4634 37.2881 71.4634 37.2881L70.091 37.5708L71.4634 36.6424L71.6248 35.8753L74.8544 36.0367ZM75.7828 35.8753L74.249 34.1798L73.1589 34.5028L72.0689 33.4128H71.3021L72.8762 33.0898L74.8544 33.7358L74.5719 34.7853L75.7828 35.8753ZM75.7828 43.3031C74.693 43.7472 74.4103 43.9088 74.4103 43.9088L73.6433 44.2316C72.5535 45.1196 72.2305 45.4427 72.2305 45.4427H71.1404L71.4634 44.6756C72.3919 44.2316 72.7149 42.8187 72.7149 42.8187L74.4103 42.4958C74.4103 42.4958 73.6433 42.0517 75.1773 42.4958C76.7114 42.9802 75.7828 43.3031 75.7828 43.3031ZM67.3055 43.7472L68.0725 43.5857L69.6064 42.8187L70.6964 43.4242L72.3919 42.3747L70.2524 44.0701C69.1623 44.5142 69.445 44.5142 68.678 44.5142C67.9109 44.5142 67.3055 43.7472 67.3055 43.7472Z" fill="#3E231B"/>
<path opacity="0.98" d="M37.7274 1.00151C19.9452 1.17101 3.67365 16.7464 1.36179 36.4065C-0.693748 53.887 6.20081 71.156 17.1861 83.4831C35.3517 103.868 57.6084 119.988 72.2787 144C75.1776 140.562 78.4042 135.155 81.6718 131.149C98.3286 110.731 120.073 95.9497 135.059 73.8527C146.399 57.1329 147.671 31.2485 134.704 14.9064C122.656 -0.278296 100.532 -3.54711 85.6045 8.12184C80.1736 12.3673 75.52 17.9242 72.4448 24.4794C65.8076 10.316 52.2859 0.862657 37.7274 1.00151V1.00151Z" stroke="#B91111" stroke-width="2" stroke-linecap="round" stroke-linejoin="round"/>
</svg>
